<?xml version="1.0" standalone="no"?>
<!DOCTYPE svg PUBLIC "-//W3C//DTD SVG 20010904//EN"
 "http://www.w3.org/TR/2001/REC-SVG-20010904/DTD/svg10.dtd">
<svg version="1.0" xmlns="http://www.w3.org/2000/svg"
 width="512.000000pt" height="512.000000pt" viewBox="0 0 512.000000 512.000000"
 preserveAspectRatio="xMidYMid meet">
<metadata>
Created by potrace 1.14, written by Peter Selinger 2001-2017
</metadata>
<g transform="translate(0.000000,512.000000) scale(0.100000,-0.100000)"
fill="#000000" stroke="none">
<path d="M969 5093 c-73 -50 -68 49 -69 -1281 0 -657 -3 -1192 -7 -1190 -117
58 -201 78 -313 74 -47 -2 -96 -7 -109 -10 -95 -22 -179 -64 -251 -125 -139
-116 -210 -262 -215 -439 -5 -169 47 -311 159 -430 113 -120 248 -181 411
-188 287 -11 532 171 605 448 18 70 19 127 19 1292 1 671 2 1221 4 1222 2 2
27 -25 56 -59 104 -121 250 -264 417 -407 16 -14 86 -69 156 -123 141 -108
187 -156 224 -234 81 -173 46 -372 -91 -508 -83 -84 -201 -135 -311 -135 -53
0 -111 -34 -134 -80 -39 -77 -17 -153 56 -196 40 -24 51 -26 122 -20 86 6 98
8 168 29 254 78 450 286 515 547 8 33 13 106 13 180 -1 114 -4 134 -33 220
-57 167 -141 279 -306 405 -380 290 -540 459 -786 826 -105 158 -122 178 -159
193 -54 21 -99 18 -141 -11z"/>
<path d="M4916 3893 c-2 -3 -358 -106 -406 -118 -31 -8 -274 -76 -515 -145
-137 -40 -304 -87 -370 -105 -127 -35 -585 -165 -745 -210 -103 -30 -136 -50
-162 -98 -16 -30 -17 -110 -18 -1064 0 -568 -1 -1033 -3 -1033 -2 0 -21 8 -43
19 -82 39 -140 54 -234 57 -109 4 -175 -9 -270 -53 -122 -56 -226 -156 -285
-274 -91 -178 -82 -402 22 -578 42 -71 138 -165 210 -207 252 -148 586 -88
766 139 72 90 115 186 131 292 2 17 5 455 5 975 l1 946 73 21 c39 12 205 58
367 103 162 45 302 84 310 87 8 4 20 7 25 9 22 5 274 76 335 94 36 10 202 58
370 105 168 47 313 88 323 91 16 5 17 -29 17 -610 0 -339 -2 -616 -4 -616 -2
0 -27 11 -55 26 -116 57 -284 68 -421 25 -198 -62 -362 -241 -404 -441 -13
-62 -15 -207 -2 -259 27 -113 77 -203 166 -292 124 -126 269 -182 445 -175
270 12 487 188 555 450 18 67 19 137 19 1398 1 805 -3 1336 -8 1351 -12 32
-56 76 -89 88 -22 9 -98 10 -106 2z"/>
</g>
</svg>
